<svg width="90" xmlns="http://www.w3.org/2000/svg" height="90" fill="none"><path d="M41.250,86.994C21.225,86.994,3.862,72.144,0.116,53.218C-0.724,48.965,3.131,45.110,7.383,45.950C26.310,49.696,41.250,66.965,41.250,86.994ZZM63.731,45.943C63.101,36.035,57.581,25.100,50.441,16.198C47.647,12.714,42.356,12.714,39.558,16.198C32.418,25.100,26.895,36.035,26.268,45.943C34.567,51.271,41.152,59.049,45.000,68.244C48.847,59.049,55.432,51.271,63.731,45.943ZZM82.616,45.954C63.690,49.700,48.750,66.969,48.750,86.994C68.775,86.994,86.137,72.144,89.883,53.218C90.723,48.965,86.868,45.110,82.616,45.954ZZ" class="fills" style="fill: rgb(0, 0, 0);"/></svg>